<svg width="17.500000" height="15.500000" viewBox="0 0 17.5 15.5" fill="none" xmlns="http://www.w3.org/2000/svg" xmlns:xlink="http://www.w3.org/1999/xlink">
	<desc>
			Created with Pixso.
	</desc>
	<defs/>
	<path id="shape (Граница)" d="M0.21 12.28C0.36 12.42 0.54 12.5 0.75 12.5L16.75 12.5C16.95 12.5 17.13 12.42 17.28 12.28C17.42 12.13 17.5 11.95 17.5 11.75L17.5 0.75C17.5 0.54 17.42 0.36 17.28 0.21C17.13 0.07 16.95 0 16.75 0C16.65 0 16.55 0.01 16.46 0.05C16.37 0.09 16.29 0.14 16.21 0.21L12.75 3.68L9.28 0.21C9.13 0.07 8.95 0 8.75 0C8.54 0 8.36 0.07 8.21 0.21L4.75 3.68L1.28 0.21C1.13 0.07 0.95 0 0.75 0C0.54 0 0.36 0.07 0.21 0.21C0.14 0.29 0.09 0.37 0.05 0.46C0.01 0.55 0 0.65 0 0.75L0 11.75C0 11.95 0.07 12.13 0.21 12.28ZM1.5 11L16 11L16 2.56L13.28 5.28C13.13 5.42 12.95 5.5 12.75 5.5C12.54 5.5 12.36 5.42 12.21 5.28L8.75 1.81L5.28 5.28C5.13 5.42 4.95 5.5 4.75 5.5C4.54 5.5 4.36 5.42 4.21 5.28L1.5 2.56L1.5 11ZM0.75 14L16.75 14C17.17 14 17.5 14.33 17.5 14.75C17.5 15.16 17.17 15.5 16.75 15.5L0.75 15.5C0.33 15.5 0 15.16 0 14.75C0 14.33 0.33 14 0.75 14Z" fill="#7E74F1" fill-opacity="1.000000" fill-rule="evenodd"/>
</svg>
