<svg width="18.000000" height="18.000000" viewBox="0 0 18 18" fill="none" xmlns="http://www.w3.org/2000/svg" xmlns:xlink="http://www.w3.org/1999/xlink">
	<desc>
			Created with Pixso.
	</desc>
	<defs/>
	<path id="Icon" d="M10.08 0.25C9.43 -0.09 8.55 -0.09 7.89 0.24C5.6 1.73 3.17 3.15 1.1 4.58C0.79 4.83 0.57 5.19 0.57 5.62C0.58 6.04 0.8 6.4 1.11 6.65C3.17 7.89 5.6 9.32 7.84 10.95C8.49 11.28 9.38 11.29 10.03 10.95C12.39 9.32 13.36 8.84 16.83 6.61C17.14 6.37 17.36 6 17.35 5.58C17.35 5.15 17.13 4.79 16.82 4.55C14.82 3.15 12.39 1.73 10.08 0.25ZM8.56 1.5C8.79 1.39 9.18 1.39 9.41 1.51C11.42 2.68 13.36 4.1 15.82 5.59C13.85 6.95 11.91 8.37 9.36 9.69C9.13 9.81 8.75 9.81 8.52 9.69C6.2 8.37 4.14 6.95 2.11 5.61C4.14 4.1 5.6 3.15 8.56 1.5ZM17.88 9.1C18.1 9.43 17.99 9.87 17.65 10.08L11.73 13.69C10.94 14.05 9.96 14.53 9 14.53C8.14 14.53 7.28 14.16 6.49 13.82C6.39 13.78 6.29 13.73 6.2 13.69L0.34 10.12C0 9.91 -0.11 9.47 0.11 9.14C0.32 8.81 0.77 8.7 1.11 8.91L6.97 12.49C7.5 12.81 8.24 13.11 9 13.11C9.75 13.11 10.43 12.81 10.96 12.49L16.88 8.87C17.22 8.66 17.67 8.76 17.88 9.1ZM17.65 13.64C17.99 13.43 18.1 12.99 17.88 12.66C17.67 12.32 17.22 12.22 16.88 12.43L11.75 15.56C11 16.02 10 16.42 8.96 16.42C7.93 16.42 6.92 16.02 6.17 15.56L1.11 12.47C0.77 12.26 0.32 12.37 0.11 12.7C-0.11 13.03 0 13.47 0.34 13.68L5.4 16.77C5.55 16.83 5.73 16.92 5.95 17.02C6.76 17.41 7.98 18 8.96 18C10.21 18 10.94 17.53 12.52 16.77L17.65 13.64Z" fill="#7E74F1" fill-opacity="1.000000" fill-rule="evenodd"/>
</svg>
