<svg width="19.500000" height="19.500000" viewBox="0 0 19.5 19.5" fill="none" xmlns="http://www.w3.org/2000/svg" xmlns:xlink="http://www.w3.org/1999/xlink">
	<desc>
			Created with Pixso.
	</desc>
	<defs/>
	<path id="shape (Граница)" d="M7.62 19.26C8.31 19.42 9.02 19.5 9.75 19.5C10.47 19.5 11.18 19.42 11.87 19.26C12.44 19.14 13 18.96 13.54 18.73C14.09 18.5 14.61 18.22 15.1 17.9C15.65 17.53 16.16 17.11 16.64 16.64C17.11 16.16 17.53 15.65 17.9 15.1C18.22 14.61 18.5 14.09 18.73 13.54C18.96 13 19.14 12.44 19.26 11.87C19.42 11.18 19.5 10.47 19.5 9.75C19.5 9.02 19.42 8.31 19.26 7.62C19.14 7.05 18.96 6.49 18.73 5.95C18.5 5.4 18.22 4.88 17.9 4.39C17.53 3.84 17.11 3.33 16.64 2.85C16.16 2.38 15.65 1.96 15.1 1.59C14.61 1.27 14.09 0.99 13.54 0.76C13 0.53 12.44 0.35 11.87 0.23C11.18 0.07 10.47 0 9.75 0C9.02 0 8.31 0.07 7.62 0.23C7.05 0.35 6.49 0.53 5.95 0.76C5.4 0.99 4.88 1.27 4.39 1.59C3.84 1.96 3.33 2.38 2.85 2.85C2.38 3.33 1.96 3.84 1.59 4.39C1.27 4.88 0.99 5.4 0.76 5.95C0.53 6.49 0.35 7.05 0.23 7.62C0.07 8.31 0 9.02 0 9.75C0 10.47 0.07 11.18 0.23 11.87C0.35 12.44 0.53 13 0.76 13.54C0.99 14.09 1.27 14.61 1.59 15.1C1.96 15.65 2.38 16.16 2.85 16.64C3.33 17.11 3.84 17.53 4.39 17.9C4.88 18.22 5.4 18.5 5.95 18.73C6.49 18.96 7.05 19.14 7.62 19.26ZM11.76 17.75C12.17 17.65 12.56 17.51 12.96 17.35C13.42 17.15 13.85 16.92 14.26 16.65C14.73 16.34 15.17 15.99 15.58 15.58C15.99 15.17 16.34 14.73 16.65 14.26C16.92 13.85 17.15 13.42 17.35 12.96C17.54 12.51 17.69 12.04 17.79 11.57C17.87 11.22 17.93 10.86 17.96 10.5L14.48 10.5C14.42 11.52 14.25 12.51 13.97 13.46C13.93 13.62 13.88 13.77 13.83 13.92C13.64 14.49 13.42 15.03 13.15 15.56C12.92 16.02 12.66 16.48 12.37 16.91C12.17 17.2 11.97 17.48 11.76 17.75ZM12.97 10.5L6.52 10.5C6.57 11.43 6.74 12.34 7.01 13.21C7.03 13.29 7.06 13.37 7.08 13.45C7.25 13.95 7.45 14.43 7.68 14.9C7.89 15.31 8.12 15.7 8.37 16.08C8.76 16.66 9.19 17.19 9.65 17.65C9.68 17.62 9.81 17.68 9.84 17.65C10.3 17.19 10.73 16.66 11.12 16.08C11.37 15.7 11.6 15.31 11.81 14.9C12.04 14.43 12.24 13.95 12.41 13.45C12.43 13.37 12.46 13.29 12.48 13.21C12.75 12.34 12.92 11.43 12.97 10.5ZM12.97 9L6.52 9C6.57 8.06 6.74 7.15 7.01 6.28C7.03 6.2 7.06 6.12 7.08 6.04C7.25 5.54 7.45 5.06 7.68 4.59C7.89 4.18 8.12 3.79 8.37 3.41C8.76 2.83 9.19 2.3 9.65 1.84C9.68 1.87 9.81 1.81 9.84 1.84C10.3 2.3 10.73 2.83 11.12 3.41C11.37 3.79 11.6 4.18 11.81 4.59C12.04 5.06 12.24 5.54 12.41 6.04C12.43 6.12 12.46 6.2 12.48 6.28C12.75 7.15 12.92 8.06 12.97 9ZM14.48 9L17.96 9C17.93 8.63 17.87 8.27 17.79 7.92C17.69 7.45 17.54 6.98 17.35 6.53C17.15 6.07 16.92 5.64 16.65 5.23C16.34 4.76 15.99 4.32 15.58 3.91C15.17 3.51 14.73 3.15 14.26 2.84C13.85 2.57 13.42 2.34 12.96 2.14C12.56 1.98 12.17 1.84 11.76 1.74C11.97 2.01 12.17 2.29 12.37 2.58C12.66 3.02 12.92 3.47 13.15 3.93C13.42 4.46 13.64 5.01 13.83 5.57C13.88 5.72 13.93 5.87 13.97 6.03C14.25 6.98 14.42 7.97 14.48 9ZM7.73 1.74C7.32 1.84 6.93 1.98 6.53 2.14C6.07 2.34 5.64 2.57 5.23 2.84C4.76 3.15 4.32 3.51 3.91 3.91C3.51 4.32 3.15 4.76 2.84 5.23C2.57 5.64 2.34 6.07 2.14 6.53C1.95 6.98 1.8 7.45 1.7 7.92C1.62 8.27 1.56 8.63 1.53 9L5.01 9C5.07 7.97 5.24 6.98 5.52 6.03C5.56 5.87 5.61 5.72 5.66 5.57C5.85 5.01 6.07 4.46 6.34 3.93C6.57 3.47 6.83 3.02 7.12 2.58C7.32 2.29 7.52 2.01 7.73 1.74ZM5.01 10.5L1.53 10.5C1.56 10.86 1.62 11.22 1.7 11.57C1.8 12.04 1.95 12.51 2.14 12.96C2.34 13.42 2.57 13.85 2.84 14.26C3.15 14.73 3.51 15.17 3.91 15.58C4.32 15.99 4.76 16.34 5.23 16.65C5.64 16.92 6.07 17.15 6.53 17.35C6.93 17.51 7.32 17.65 7.73 17.75C7.52 17.48 7.32 17.2 7.12 16.91C6.83 16.47 6.57 16.02 6.34 15.56C6.07 15.03 5.85 14.48 5.66 13.92C5.61 13.77 5.56 13.62 5.52 13.46C5.24 12.51 5.07 11.52 5.01 10.5Z" fill="#7E74F1" fill-opacity="1.000000" fill-rule="evenodd"/>
</svg>
