<svg width="11.500000" height="19.500000" viewBox="0 0 11.5 19.5" fill="none" xmlns="http://www.w3.org/2000/svg" xmlns:xlink="http://www.w3.org/1999/xlink">
	<desc>
			Created with Pixso.
	</desc>
	<defs/>
	<path id="shape (Граница)" d="M5 11.45C4.83 11.43 4.66 11.4 4.5 11.36C4.16 11.29 3.83 11.18 3.51 11.04C3.18 10.91 2.87 10.74 2.58 10.55C2.26 10.34 1.96 10.09 1.68 9.81C1.4 9.53 1.15 9.23 0.94 8.91C0.75 8.62 0.58 8.31 0.45 7.98C0.31 7.66 0.2 7.33 0.13 6.99C0.04 6.59 0 6.17 0 5.75C0 5.32 0.04 4.9 0.13 4.5C0.2 4.16 0.31 3.83 0.45 3.51C0.58 3.18 0.75 2.87 0.94 2.58C1.15 2.26 1.4 1.96 1.68 1.68C1.96 1.4 2.26 1.15 2.58 0.94C2.87 0.75 3.18 0.58 3.51 0.45C3.83 0.31 4.16 0.2 4.5 0.13C4.9 0.04 5.32 0 5.75 0C6.17 0 6.59 0.04 6.99 0.13C7.33 0.2 7.66 0.31 7.98 0.45C8.31 0.58 8.62 0.75 8.91 0.94C9.23 1.15 9.53 1.4 9.81 1.68C10.09 1.96 10.34 2.26 10.55 2.58C10.74 2.87 10.91 3.18 11.04 3.51C11.18 3.83 11.29 4.16 11.36 4.5C11.45 4.9 11.5 5.32 11.5 5.75C11.5 6.17 11.45 6.59 11.36 6.99C11.29 7.33 11.18 7.66 11.04 7.98C10.91 8.31 10.74 8.62 10.55 8.91C10.34 9.23 10.09 9.53 9.81 9.81C9.53 10.09 9.23 10.34 8.91 10.55C8.62 10.74 8.31 10.91 7.98 11.04C7.66 11.18 7.33 11.29 6.99 11.36C6.83 11.4 6.66 11.43 6.5 11.45L6.5 18.75C6.5 19.16 6.17 19.5 5.75 19.5C5.32 19.5 5 19.16 5 18.75L5 11.45ZM6.7 9.89C6.39 9.96 6.07 10 5.75 10C5.42 10 5.1 9.96 4.79 9.89C4.56 9.83 4.32 9.76 4.09 9.66C3.86 9.56 3.63 9.44 3.42 9.31C3.18 9.15 2.95 8.96 2.74 8.75C2.53 8.54 2.34 8.31 2.19 8.07C2.05 7.86 1.93 7.63 1.83 7.4C1.73 7.17 1.66 6.93 1.6 6.7C1.53 6.39 1.5 6.07 1.5 5.75C1.5 5.42 1.53 5.1 1.6 4.79C1.66 4.56 1.73 4.32 1.83 4.09C1.93 3.86 2.05 3.63 2.19 3.42C2.34 3.18 2.53 2.95 2.74 2.74C2.95 2.53 3.18 2.34 3.42 2.18C3.63 2.05 3.86 1.93 4.09 1.83C4.32 1.73 4.56 1.66 4.79 1.6C5.1 1.53 5.42 1.5 5.75 1.5C6.07 1.5 6.39 1.53 6.7 1.6C6.93 1.66 7.17 1.73 7.4 1.83C7.63 1.93 7.86 2.05 8.07 2.18C8.31 2.34 8.54 2.53 8.75 2.74C8.96 2.95 9.15 3.18 9.31 3.42C9.44 3.63 9.56 3.86 9.66 4.09C9.76 4.32 9.83 4.56 9.89 4.79C9.96 5.1 10 5.42 10 5.75C10 6.07 9.96 6.39 9.89 6.7C9.83 6.93 9.76 7.17 9.66 7.4C9.56 7.63 9.44 7.86 9.31 8.07C9.15 8.31 8.96 8.54 8.75 8.75C8.54 8.96 8.31 9.15 8.07 9.31C7.86 9.44 7.63 9.56 7.4 9.66C7.17 9.76 6.93 9.83 6.7 9.89Z" fill="#7E74F1" fill-opacity="1.000000" fill-rule="evenodd"/>
</svg>
