<svg width="19.500458" height="19.500488" viewBox="0 0 19.5005 19.5005" fill="none" xmlns="http://www.w3.org/2000/svg" xmlns:xlink="http://www.w3.org/1999/xlink">
	<desc>
			Created with Pixso.
	</desc>
	<defs/>
	<path id="shape (Граница)" d="M12.66 1.49C12.24 1.44 11.95 1.08 12 0.66C12.05 0.25 12.41 -0.05 12.83 0C13.06 0.03 13.29 0.06 13.52 0.11C14.11 0.24 14.69 0.45 15.25 0.73C15.99 1.11 16.66 1.6 17.28 2.21C17.87 2.81 18.35 3.46 18.72 4.17C19 4.71 19.24 5.34 19.37 5.92C19.42 6.17 19.46 6.41 19.49 6.66C19.54 7.08 19.25 7.44 18.83 7.49C18.41 7.54 18.05 7.25 18 6.83C17.98 6.67 17.96 6.51 17.92 6.35C17.83 5.86 17.66 5.38 17.42 4.92C17.12 4.32 16.72 3.78 16.22 3.28C15.71 2.77 15.16 2.37 14.57 2.07C14.09 1.83 13.6 1.65 13.09 1.56C12.95 1.53 12.81 1.51 12.66 1.49ZM19.49 16.93L19.49 14.23C19.5 14.08 19.49 13.93 19.46 13.78C19.44 13.63 19.4 13.47 19.35 13.33C19.3 13.18 19.23 13.04 19.16 12.91C19.08 12.77 18.99 12.64 18.89 12.52C18.63 12.22 18.24 11.94 17.72 11.69C17.3 11.49 16.81 11.31 16.27 11.17C15.76 11.04 15.26 10.95 14.78 10.91C14.26 10.86 13.82 10.87 13.47 10.95C13.06 11.04 12.65 11.24 12.25 11.57C12.11 11.69 11.96 11.83 11.8 11.99C11.71 12.07 11.6 12.2 11.45 12.36C11.09 12.13 10.74 11.89 10.4 11.63C9.92 11.26 9.46 10.86 9.03 10.43C8.59 9.99 8.18 9.52 7.81 9.03C7.56 8.71 7.33 8.37 7.11 8.02C7.27 7.88 7.39 7.76 7.48 7.68C7.64 7.52 7.78 7.37 7.89 7.23C8.22 6.83 8.43 6.42 8.52 6.01C8.6 5.66 8.61 5.23 8.56 4.7C8.52 4.22 8.43 3.73 8.3 3.22C8.16 2.68 7.98 2.2 7.78 1.78C7.54 1.26 7.26 0.88 6.96 0.61C6.84 0.51 6.71 0.42 6.58 0.35C6.45 0.27 6.31 0.2 6.16 0.15C5.98 0.08 5.8 0.04 5.61 0.02C5.5 0 5.38 -0.01 5.27 0L2.55 0C2.39 0 2.24 0.01 2.08 0.04C1.89 0.08 1.7 0.14 1.51 0.23C1.37 0.29 1.24 0.36 1.12 0.45C0.96 0.56 0.81 0.69 0.68 0.83C0.54 0.98 0.42 1.15 0.32 1.32C0.25 1.45 0.19 1.58 0.14 1.71C0.07 1.9 0.03 2.09 0.01 2.29C-0.01 2.44 -0.01 2.59 0 2.75C0 3.82 0.1 4.88 0.29 5.92C0.31 5.99 0.32 6.05 0.33 6.12C0.49 6.91 0.7 7.67 0.96 8.42C1.06 8.71 1.17 9 1.29 9.29C1.54 9.88 1.81 10.45 2.12 11.01C2.34 11.4 2.57 11.77 2.81 12.14C3.13 12.62 3.47 13.07 3.83 13.51C4.15 13.89 4.49 14.26 4.84 14.62C5.21 14.99 5.6 15.35 6.01 15.68C6.43 16.03 6.86 16.35 7.32 16.66C7.69 16.91 8.08 17.15 8.47 17.37C9.02 17.67 9.59 17.95 10.17 18.19C10.45 18.3 10.72 18.41 11 18.51C11.76 18.78 12.54 19 13.35 19.15C14.43 19.37 15.61 19.49 16.74 19.49C16.9 19.5 17.05 19.5 17.2 19.48C17.4 19.46 17.59 19.41 17.77 19.35C17.91 19.3 18.05 19.24 18.17 19.16C18.35 19.07 18.51 18.95 18.66 18.81C18.81 18.67 18.94 18.52 19.05 18.36C19.13 18.24 19.21 18.11 19.27 17.98C19.35 17.79 19.41 17.6 19.45 17.4C19.48 17.25 19.5 17.09 19.49 16.93ZM17.99 14.22L17.99 16.93C17.99 16.98 17.99 17.03 17.98 17.08C17.97 17.17 17.94 17.26 17.9 17.35C17.88 17.4 17.86 17.44 17.84 17.48C17.78 17.56 17.72 17.64 17.64 17.71C17.57 17.78 17.49 17.83 17.4 17.88C17.36 17.9 17.31 17.92 17.27 17.94C17.18 17.97 17.1 17.98 17.01 17.99C16.95 18 16.9 18 16.84 17.99C15.37 17.99 13.89 17.8 12.53 17.42C11.93 17.25 11.33 17.05 10.75 16.81C10.21 16.58 9.68 16.33 9.18 16.04C8.83 15.85 8.49 15.64 8.15 15.41C7.74 15.14 7.34 14.84 6.96 14.52C6.59 14.22 6.24 13.9 5.91 13.56C5.58 13.24 5.28 12.9 4.99 12.56C4.66 12.16 4.35 11.74 4.06 11.31C3.84 10.98 3.64 10.65 3.45 10.3C3.16 9.79 2.9 9.26 2.68 8.71C2.42 8.1 2.21 7.48 2.04 6.85C1.68 5.52 1.5 4.14 1.5 2.71C1.5 2.66 1.49 2.53 1.5 2.48C1.51 2.39 1.52 2.31 1.55 2.22C1.57 2.18 1.59 2.14 1.61 2.1C1.65 2.01 1.71 1.92 1.78 1.85C1.85 1.77 1.92 1.71 2.01 1.66C2.05 1.63 2.09 1.61 2.14 1.59C2.22 1.55 2.31 1.52 2.4 1.51C2.45 1.5 2.5 1.5 2.55 1.5L5.27 1.5C5.41 1.49 5.55 1.52 5.68 1.57C5.78 1.61 5.89 1.67 5.98 1.75C6.12 1.88 6.27 2.1 6.43 2.42C6.59 2.76 6.73 3.15 6.84 3.6C6.96 4.03 7.03 4.44 7.07 4.84C7.1 5.21 7.1 5.5 7.05 5.69C7.02 5.87 6.91 6.07 6.74 6.28C6.65 6.38 6.55 6.49 6.43 6.61C6.35 6.69 6.22 6.8 6.06 6.96C5.86 7.13 5.72 7.27 5.63 7.36C5.51 7.48 5.43 7.62 5.41 7.79C5.39 7.96 5.42 8.11 5.5 8.26C5.84 8.85 6.21 9.41 6.61 9.94C7.03 10.49 7.48 11.01 7.97 11.5C8.45 11.97 8.96 12.42 9.49 12.82C10.04 13.24 10.61 13.62 11.22 13.96C11.36 14.05 11.52 14.08 11.69 14.05C11.85 14.03 12 13.96 12.12 13.84C12.21 13.75 12.34 13.61 12.52 13.41C12.67 13.24 12.79 13.12 12.87 13.04C12.99 12.92 13.1 12.81 13.2 12.73C13.41 12.56 13.61 12.45 13.79 12.41C13.98 12.37 14.27 12.37 14.64 12.4C15.05 12.44 15.46 12.51 15.89 12.63C16.34 12.74 16.74 12.88 17.07 13.04C17.4 13.2 17.62 13.35 17.74 13.49C17.83 13.6 17.9 13.71 17.94 13.83C17.98 13.94 18 14.09 17.99 14.22ZM12.39 3.51C11.98 3.43 11.59 3.69 11.51 4.1C11.43 4.51 11.69 4.9 12.1 4.98C12.42 5.04 12.72 5.14 13 5.27C13.28 5.41 13.52 5.58 13.71 5.78C13.91 5.97 14.08 6.21 14.22 6.5C14.35 6.77 14.45 7.07 14.51 7.39C14.59 7.8 14.98 8.06 15.39 7.98C15.8 7.9 16.06 7.51 15.98 7.1C15.89 6.65 15.75 6.23 15.57 5.84C15.35 5.41 15.09 5.03 14.78 4.71C14.46 4.4 14.08 4.14 13.65 3.93C13.26 3.74 12.84 3.6 12.39 3.51Z" fill="#7E74F1" fill-opacity="1.000000" fill-rule="evenodd"/>
</svg>
