<svg width="19.500000" height="15.500000" viewBox="0 0 19.5 15.5" fill="none" xmlns="http://www.w3.org/2000/svg" xmlns:xlink="http://www.w3.org/1999/xlink">
	<desc>
			Created with Pixso.
	</desc>
	<defs/>
	<path id="shape (Граница)" d="M18.11 0.03C17.99 0.01 17.87 0 17.75 0L1.75 0C1.62 0 1.5 0.01 1.38 0.03C1.27 0.06 1.17 0.09 1.06 0.13C0.96 0.18 0.87 0.23 0.78 0.29C0.68 0.35 0.59 0.42 0.51 0.51C0.42 0.59 0.35 0.68 0.29 0.78C0.23 0.87 0.18 0.96 0.13 1.06C0.09 1.17 0.06 1.27 0.03 1.38C0.01 1.5 0 1.62 0 1.75L0 13.75C0 13.87 0.01 13.99 0.03 14.11C0.06 14.22 0.09 14.32 0.13 14.43C0.18 14.53 0.23 14.62 0.29 14.71C0.35 14.81 0.42 14.9 0.51 14.98C0.59 15.07 0.68 15.14 0.78 15.2C0.87 15.26 0.96 15.31 1.06 15.36C1.17 15.4 1.27 15.43 1.38 15.46C1.5 15.48 1.62 15.5 1.75 15.5L17.75 15.5C17.87 15.5 17.99 15.48 18.11 15.46C18.22 15.43 18.32 15.4 18.43 15.36C18.53 15.31 18.62 15.26 18.71 15.2C18.81 15.14 18.9 15.07 18.98 14.98C19.07 14.9 19.14 14.81 19.2 14.71C19.26 14.62 19.31 14.53 19.36 14.43C19.4 14.32 19.43 14.22 19.46 14.11C19.48 13.99 19.5 13.87 19.5 13.75L19.5 1.75C19.5 1.62 19.48 1.5 19.46 1.38C19.43 1.27 19.4 1.17 19.36 1.06C19.31 0.96 19.26 0.87 19.2 0.78C19.14 0.68 19.07 0.59 18.98 0.51C18.9 0.42 18.81 0.35 18.71 0.29C18.62 0.23 18.53 0.18 18.43 0.13C18.32 0.09 18.22 0.06 18.11 0.03ZM1.5 2.56L1.5 13.75C1.51 13.77 1.54 13.9 1.57 13.92C1.6 13.93 1.71 14 1.75 14L17.75 14C17.77 13.98 17.9 13.95 17.92 13.92C17.93 13.89 18 13.78 18 13.75L18 2.56L11.69 8.86C11.55 9 11.39 9.13 11.23 9.23C11.09 9.32 10.94 9.4 10.78 9.47C10.62 9.53 10.46 9.58 10.3 9.61C10.12 9.65 9.93 9.67 9.75 9.67C9.56 9.67 9.37 9.65 9.19 9.61C9.03 9.58 8.87 9.53 8.71 9.47C8.55 9.4 8.4 9.32 8.26 9.23C8.1 9.13 7.94 9 7.8 8.86L1.5 2.56ZM16.93 1.5L2.56 1.5L8.86 7.8C8.93 7.87 9.01 7.93 9.09 7.98C9.15 8.02 9.21 8.05 9.27 8.08C9.34 8.1 9.41 8.12 9.48 8.14C9.57 8.16 9.66 8.17 9.75 8.17C9.83 8.17 9.92 8.16 10.01 8.14C10.08 8.12 10.15 8.1 10.22 8.08C10.28 8.05 10.34 8.02 10.4 7.98C10.48 7.93 10.56 7.87 10.63 7.8L16.93 1.5Z" fill="#7E74F1" fill-opacity="1.000000" fill-rule="evenodd"/>
</svg>
