<svg width="114.000000" height="41.000000" viewBox="0 0 114 41" fill="none" xmlns="http://www.w3.org/2000/svg" xmlns:xlink="http://www.w3.org/1999/xlink">
	<desc>
			Created with Pixso.
	</desc>
	<defs>
		<clipPath id="clip1_267">
			<rect width="114.000000" height="41.000000" fill="white" fill-opacity="0"/>
		</clipPath>
	</defs>
	<rect width="114.000000" height="41.000000" fill="#FFFFFF" fill-opacity="0"/>
	<g clip-path="url(#clip1_267)">
		<path d="M56.3 30.5L59.8 30.5L61.1 26.7L68 26.7L69.3 30.5L72.9 30.5L66.7 12.6L62.5 12.6L56.3 30.5ZM62 23.8L64.5 16.29L67 23.8L62 23.8Z" fill="#232E35" fill-opacity="1.000000" fill-rule="nonzero"/>
		<path d="M74.5 30.5L77.6 30.5L77.6 12.3L74.5 12.3L74.5 30.5Z" fill="#232E35" fill-opacity="1.000000" fill-rule="nonzero"/>
		<path d="M86.79 30.8C88.1 30.8 89.29 30.5 90.29 29.89C91.29 29.3 92 28.5 92.4 27.59L89.9 26.39C89.6 26.89 89.2 27.3 88.7 27.59C88.2 27.89 87.6 28.09 86.9 28.09C86 28.09 85.2 27.8 84.5 27.2C83.79 26.59 83.5 25.89 83.4 24.89L92.79 24.89C92.9 24.7 92.9 24.5 92.9 24.3C92.9 24.09 92.9 23.8 92.9 23.59C92.9 22.39 92.7 21.39 92.2 20.39C91.7 19.39 91 18.7 90 18.09C89.1 17.5 87.9 17.2 86.5 17.2C85.29 17.2 84.2 17.5 83.2 18.09C82.2 18.7 81.4 19.5 80.9 20.5C80.29 21.5 80.1 22.7 80.1 24C80.1 25.3 80.4 26.39 80.9 27.5C81.5 28.5 82.2 29.39 83.29 30C84.29 30.5 85.4 30.8 86.79 30.8ZM86.5 19.7C87.29 19.7 88 20 88.6 20.5C89.2 21 89.5 21.59 89.5 22.39L83.4 22.39C83.6 21.5 83.9 20.89 84.5 20.39C85.1 20 85.79 19.7 86.5 19.7Z" fill="#232E35" fill-opacity="1.000000" fill-rule="nonzero"/>
		<path d="M93.9 30.5L97.6 30.5L100.3 26.39L103 30.5L106.7 30.5L102.2 23.89L106.8 17.39L103.1 17.39L100.4 21.5L97.6 17.39L93.9 17.39L98.5 23.89L93.9 30.5Z" fill="#232E35" fill-opacity="1.000000" fill-rule="nonzero"/>
		<path d="M109.9 30.5L113.1 30.5L113.1 27.1L109.9 27.1L109.9 30.5Z" fill="#232E35" fill-opacity="1.000000" fill-rule="nonzero"/>
		<path d="M20 0.5C9 0.5 0 9.5 0 20.5C0 31.5 9 40.5 20 40.5C31 40.5 40 31.5 40 20.5C40 9.5 31 0.5 20 0.5ZM11.8 28C9.59 28 7.8 26.2 7.8 24C7.8 21.8 9.59 20 11.8 20C14 20 15.8 21.8 15.8 24C15.8 26.2 14 28 11.8 28ZM28.5 26.89C26.7 28 24.3 27.3 23.2 25.5L17.6 15.8C16.5 14 17.2 11.6 19 10.5C20.8 9.39 23.2 10.1 24.3 11.89L29.9 21.6C31 23.5 30.3 25.89 28.5 26.89Z" fill="#232E35" fill-opacity="1.000000" fill-rule="nonzero"/>
	</g>
</svg>
