<svg width="21.411377" height="21.462891" viewBox="0 0 21.4114 21.4629" fill="none" xmlns="http://www.w3.org/2000/svg" xmlns:xlink="http://www.w3.org/1999/xlink">
	<desc>
			Created with Pixso.
	</desc>
	<defs/>
	<path id="Vector" d="M15.91 7.46C15.01 7.46 14.13 7.68 13.34 8.1C13.27 7.91 13.14 7.75 12.97 7.63C12.81 7.52 12.61 7.46 12.41 7.46L8.41 7.46C8.28 7.46 8.14 7.48 8.02 7.53C7.9 7.58 7.79 7.66 7.7 7.75C7.61 7.84 7.53 7.95 7.48 8.08C7.43 8.2 7.41 8.33 7.41 8.46L7.41 20.46C7.41 20.59 7.43 20.72 7.48 20.84C7.53 20.96 7.61 21.07 7.7 21.17C7.79 21.26 7.9 21.33 8.02 21.38C8.14 21.43 8.28 21.46 8.41 21.46L12.41 21.46C12.54 21.46 12.67 21.43 12.79 21.38C12.91 21.33 13.02 21.26 13.11 21.17C13.21 21.07 13.28 20.96 13.33 20.84C13.38 20.72 13.41 20.59 13.41 20.46L13.41 14.96C13.41 14.69 13.51 14.44 13.7 14.25C13.89 14.06 14.14 13.96 14.41 13.96C14.67 13.96 14.93 14.06 15.11 14.25C15.3 14.44 15.41 14.69 15.41 14.96L15.41 20.46C15.41 20.59 15.43 20.72 15.48 20.84C15.53 20.96 15.61 21.07 15.7 21.17C15.79 21.26 15.9 21.33 16.02 21.38C16.15 21.43 16.28 21.46 16.41 21.46L20.41 21.46C20.54 21.46 20.67 21.43 20.79 21.38C20.91 21.33 21.02 21.26 21.11 21.17C21.21 21.07 21.28 20.96 21.33 20.84C21.38 20.72 21.41 20.59 21.41 20.46L21.41 12.96C21.4 11.5 20.82 10.1 19.79 9.07C18.76 8.04 17.36 7.46 15.91 7.46ZM19.41 19.46L17.41 19.46L17.41 14.96C17.41 14.16 17.09 13.4 16.53 12.84C15.97 12.27 15.2 11.96 14.41 11.96C13.61 11.96 12.85 12.27 12.29 12.84C11.72 13.4 11.41 14.16 11.41 14.96L11.41 19.46L9.41 19.46L9.41 9.46L11.41 9.46L11.41 10.16C11.41 10.37 11.47 10.57 11.59 10.74C11.71 10.91 11.88 11.04 12.08 11.1C12.27 11.17 12.48 11.18 12.68 11.12C12.88 11.07 13.06 10.95 13.19 10.79C13.64 10.22 14.25 9.8 14.95 9.6C15.64 9.39 16.39 9.41 17.07 9.65C17.76 9.89 18.35 10.34 18.77 10.93C19.19 11.52 19.41 12.23 19.41 12.96L19.41 19.46ZM5.41 7.46L1.41 7.46C1.28 7.46 1.14 7.48 1.02 7.53C0.9 7.58 0.79 7.66 0.7 7.75C0.61 7.84 0.53 7.95 0.48 8.08C0.43 8.2 0.41 8.33 0.41 8.46L0.41 20.46C0.41 20.59 0.43 20.72 0.48 20.84C0.53 20.96 0.61 21.07 0.7 21.17C0.79 21.26 0.9 21.33 1.02 21.38C1.14 21.43 1.28 21.46 1.41 21.46L5.41 21.46C5.54 21.46 5.67 21.43 5.79 21.38C5.91 21.33 6.02 21.26 6.11 21.17C6.21 21.07 6.28 20.96 6.33 20.84C6.38 20.72 6.41 20.59 6.41 20.46L6.41 8.46C6.41 8.33 6.38 8.2 6.33 8.08C6.28 7.95 6.21 7.84 6.11 7.75C6.02 7.66 5.91 7.58 5.79 7.53C5.67 7.48 5.54 7.46 5.41 7.46ZM4.41 19.46L2.41 19.46L2.41 9.46L4.41 9.46L4.41 19.46ZM3.42 0C2.98 -0.03 2.54 0.04 2.13 0.19C1.72 0.33 1.34 0.57 1.02 0.86C0.7 1.16 0.44 1.53 0.27 1.93C0.09 2.33 0 2.76 0 3.2C-0.01 3.64 0.08 4.07 0.25 4.48C0.42 4.88 0.67 5.25 0.98 5.55C1.3 5.86 1.67 6.09 2.08 6.25C2.49 6.41 2.93 6.48 3.36 6.46L3.39 6.46C3.83 6.48 4.27 6.42 4.68 6.27C5.1 6.12 5.48 5.89 5.8 5.59C6.12 5.29 6.37 4.92 6.55 4.52C6.72 4.12 6.82 3.68 6.82 3.24C6.82 2.8 6.73 2.37 6.56 1.96C6.39 1.56 6.14 1.2 5.82 0.89C5.5 0.59 5.12 0.35 4.71 0.2C4.3 0.05 3.86 -0.02 3.42 0L3.42 0ZM3.39 4.46L3.36 4.46C3.19 4.48 3.02 4.46 2.85 4.41C2.68 4.36 2.53 4.27 2.4 4.15C2.27 4.04 2.17 3.9 2.1 3.74C2.03 3.58 1.99 3.4 2 3.23C2 2.48 2.55 2 3.42 2C3.6 1.98 3.77 1.99 3.94 2.04C4.11 2.09 4.27 2.18 4.4 2.3C4.53 2.41 4.64 2.56 4.71 2.72C4.78 2.88 4.82 3.05 4.82 3.23C4.82 3.98 4.26 4.46 3.39 4.46Z" fill="#232E35" fill-opacity="1.000000" fill-rule="nonzero"/>
</svg>
